<?xml version="1.0" encoding="utf-8"?>
<!-- Generator: $$$/GeneralStr/196=Adobe Illustrator 27.6.0, SVG Export Plug-In . SVG Version: 6.00 Build 0)  -->
<svg version="1.1" id="Ebene_1" xmlns="http://www.w3.org/2000/svg" xmlns:xlink="http://www.w3.org/1999/xlink" x="0px" y="0px"
	 viewBox="0 0 146.99 100" style="enable-background:new 0 0 146.99 100;" xml:space="preserve">
<style type="text/css">
	.st0{fill:#8F2133;}
	.st1{fill:#FFFFFF;}
</style>
<path class="st0" d="M138.48,100H8.5C3.83,100,0,96.17,0,91.5V8.5C0,3.83,3.83,0,8.5,0h129.98c4.68,0,8.5,3.83,8.5,8.5V91.5
	C146.99,96.17,143.16,100,138.48,100z"/>
<path class="st1" d="M73.49,63.97c0-3.85-2.93-7.59-5.39-10.06c-1.46-1.46-3.44-2.28-5.5-2.26h-0.6V31.11h1.12
	c1.46,0,2.9-0.25,4.27-0.75C70.84,29.1,77.51,27,83.35,27h6.51c1.34,0,2.47,1.04,2.52,2.37c0.05,1.4-1.07,2.55-2.46,2.55
	c-0.46,0-0.84,0.38-0.82,0.85c0.01,0.45,0.41,0.8,0.86,0.8h2.37c1.34,0,2.47,1.04,2.52,2.37c0.05,1.4-1.07,2.55-2.46,2.55
	c-0.46,0-0.84,0.38-0.82,0.85c0.01,0.45,0.41,0.8,0.86,0.8l1.61,0l0,0c1.36,0,2.46,1.1,2.46,2.46c0,1.35-1.08,2.44-2.43,2.46
	c-0.45,0.01-0.84,0.33-0.86,0.78c-0.02,0.47,0.35,0.86,0.82,0.86l0,0c1.39,0,2.51,1.15,2.46,2.55c-0.05,1.34-1.19,2.37-2.52,2.37
	H83.35c-0.13,0-0.25,0.01-0.38,0.02c-2.05,0.21-3.53,2.04-3.32,4.08c0.2,1.98,0.42,5.66,0.42,9.04c0.02,1.87-0.15,3.75-0.5,5.59
	c-0.15,0.72-0.54,1.37-1.11,1.85C77.84,72.74,77.03,73,76.21,73c-1.51,0-2.72-1.25-2.72-2.76V63.97z M50.49,30.29
	c0-0.45,0.37-0.82,0.82-0.82h8.21c0.45,0,0.82,0.37,0.82,0.82v22.18c0,0.45-0.37,0.82-0.82,0.82h-8.21c-0.45,0-0.82-0.37-0.82-0.82
	V30.29z"/>
</svg>
