<?xml version="1.0" encoding="utf-8"?>
<!-- Generator: $$$/GeneralStr/196=Adobe Illustrator 27.6.0, SVG Export Plug-In . SVG Version: 6.00 Build 0)  -->
<svg version="1.1" id="Ebene_1" xmlns="http://www.w3.org/2000/svg" xmlns:xlink="http://www.w3.org/1999/xlink" x="0px" y="0px"
	 viewBox="0 0 305.36 305.36" style="enable-background:new 0 0 305.36 305.36;" xml:space="preserve">
<style type="text/css">
	.st0{fill:none;stroke:#FFFFFF;stroke-width:7;stroke-miterlimit:10;}
	.st1{fill:#FFFFFF;}
	.st2{fill:#FFFFFF;stroke:#FFFFFF;stroke-miterlimit:10;}
	.st3{fill:#ADB5BD;}
</style>
<circle class="st0" cx="153.01" cy="152.68" r="98.05"/>
<path class="st0" d="M89.08,78.34L89.08,78.34c9.99,19.08,28.46,47.76,53.55,58.69c39,17,108.44,22.93,108.44,22.93"/>
<path class="st0" d="M54.3,149.75c0,0,23.15-7.1,33.67-15.72c15.21-12.46,21.66-23.99,21.66-23.99"/>
<path class="st1" d="M198.87,177.17c-0.13,7.9-6.75,14.21-14.61,13.94c-7.69-0.27-13.8-6.69-13.67-14.37
	c0.13-7.68,6.45-13.95,14.09-13.95C192.57,162.79,199.01,169.31,198.87,177.17z M184.54,184.12c3.9,0.11,7.37-3.21,7.4-7.1
	c0.03-3.68-3.08-7.01-6.78-7.25c-3.86-0.24-7.46,2.98-7.65,6.86C177.31,180.51,180.6,184,184.54,184.12z"/>
<path class="st2" d="M123.78,177.16c-0.12,7.67-6.46,13.95-14.11,13.97c-7.87,0.02-14.31-6.5-14.19-14.37
	c0.13-7.88,6.74-14.21,14.59-13.96C117.72,163.04,123.9,169.51,123.78,177.16z M109.68,169.75c-3.86-0.04-7.32,3.42-7.27,7.28
	c0.05,3.71,3.2,6.94,6.93,7.08c3.93,0.15,7.42-3.09,7.53-6.99C116.97,173.3,113.55,169.79,109.68,169.75z"/>
<g>
	<path class="st3" d="M260.64,44.72C246.62,30.7,230.29,19.69,212.11,12c-18.83-7.96-38.82-12-59.43-12s-40.61,4.04-59.43,12
		c-18.18,7.69-34.51,18.7-48.53,32.72C30.7,58.74,19.69,75.07,12,93.25c-7.96,18.83-12,38.82-12,59.43
		c0,20.47,3.99,40.35,11.85,59.07c7.59,18.08,18.47,34.34,32.32,48.34c14.04,14.19,30.43,25.33,48.72,33.12
		c18.93,8.07,39.05,12.16,59.8,12.16s40.86-4.09,59.8-12.16c18.28-7.79,34.67-18.93,48.72-33.12c13.86-14,24.73-30.26,32.32-48.34
		c7.86-18.72,11.85-38.59,11.85-59.07c0-20.61-4.04-40.61-12-59.43C285.67,75.07,274.66,58.74,260.64,44.72z M255.7,251.32
		c-6.18-14.91-16.67-24.96-30.6-33.63c-21.77-13.55-43.38-19.32-43.38-19.32c-0.75-2.34-1.6-10.01-2.05-17.93
		c2.68-2.96,5.37-6.06,8.36-8.99c5.51-5.41,6.11-13.16,8.09-23.15c2.94,1.42,4.66-0.49,5.67-2.03c0.65-0.99,0.91-2.19,1.15-3.36
		c0.88-4.19,1.75-8.38,2.63-12.57c0.66-3.15,1.32-6.37,0.87-9.55c-0.21-1.51-0.75-3.08-1.98-3.97c-1.24-0.89-3.3-0.67-3.92,0.72
		c0,0,2-19.72,2-18.06c1.67-1.86,3-5.91,2.44-9.04c-0.55-3.13-1.55-6.17-2.04-9.31c-0.54-3.44-0.49-7-1.47-10.34
		c-1.39-4.71-4.73-8.58-8.12-12.14c-2.4-2.52-4.89-4.97-7.6-7.15c-5.43-4.36-11.9-7.65-18.82-8.42c-2.22-0.25-4.46-0.24-6.7-0.23
		c-2.51,0.01-5.01,0.02-7.52,0.04c-2.51-0.01-5.02-0.02-7.52-0.04c-2.24-0.01-4.48-0.02-6.7,0.23c-6.92,0.78-13.39,4.06-18.82,8.42
		c-2.71,2.18-5.2,4.63-7.6,7.15c-3.39,3.56-6.73,7.42-8.12,12.14c-0.99,3.34-0.93,6.9-1.47,10.34c-0.5,3.14-1.49,6.18-2.04,9.31
		c-0.55,3.13,0.77,7.18,2.44,9.04c0-1.66,2,18.06,2,18.06c-0.62-1.39-2.68-1.6-3.92-0.72c-1.24,0.89-1.77,2.46-1.98,3.97
		c-0.45,3.18,0.21,6.41,0.87,9.55c0.88,4.19,1.75,8.38,2.63,12.57c0.24,1.17,0.5,2.36,1.15,3.36c0.96,1.46,2.09,3.17,5.69,2.15
		c1.96,9.94,2.58,17.65,8.06,23.04c2.88,2.83,5.61,5.82,8.37,8.69c-0.45,8.03-1.31,15.87-2.07,18.24c0,0-21.61,5.77-43.38,19.32
		c-13.93,8.67-24.43,18.73-30.6,33.63c-25.56-26.67-39.61-61.61-39.61-98.64c0-19.26,3.77-37.94,11.21-55.52
		c7.18-16.98,17.47-32.24,30.57-45.34c13.1-13.1,28.35-23.39,45.34-30.57c17.58-7.44,36.26-11.21,55.52-11.21
		s37.94,3.77,55.52,11.21c16.98,7.18,32.24,17.47,45.34,30.57c13.1,13.1,23.39,28.35,30.57,45.34
		c7.44,17.58,11.21,36.26,11.21,55.52C295.31,189.72,281.26,224.65,255.7,251.32z"/>
</g>
<ellipse class="st3" cx="153.01" cy="110.15" rx="58.57" ry="77.99"/>
</svg>
