<?xml version="1.0" encoding="utf-8"?>
<!-- Generator: $$$/GeneralStr/196=Adobe Illustrator 27.6.0, SVG Export Plug-In . SVG Version: 6.00 Build 0)  -->
<svg version="1.1" id="Ebene_1" xmlns="http://www.w3.org/2000/svg" xmlns:xlink="http://www.w3.org/1999/xlink" x="0px" y="0px"
	 viewBox="0 0 146.99 100" style="enable-background:new 0 0 146.99 100;" xml:space="preserve">
<style type="text/css">
	.st0{fill:#AD1034;}
	.st1{fill:#FFFFFF;}
</style>
<path class="st0" d="M138.48,100H8.5C3.83,100,0,96.17,0,91.5V8.5C0,3.83,3.83,0,8.5,0h129.98c4.68,0,8.5,3.83,8.5,8.5V91.5
	C146.99,96.17,143.16,100,138.48,100z"/>
<path class="st1" d="M73.49,29.76c0-1.51,1.21-2.76,2.72-2.76c0.81,0,1.63,0.26,2.24,0.78c0.56,0.48,0.95,1.13,1.11,1.85
	c0.36,1.84,0.52,3.71,0.5,5.59c0,3.38-0.22,7.06-0.42,9.04c-0.21,2.05,1.28,3.87,3.32,4.08c0.13,0.01,0.25,0.02,0.38,0.02h10.62
	c1.34,0,2.47,1.04,2.52,2.37c0.05,1.4-1.07,2.55-2.46,2.55l0,0c-0.47,0-0.84,0.39-0.82,0.86c0.02,0.44,0.41,0.77,0.86,0.78
	c1.34,0.02,2.43,1.12,2.43,2.46c0,1.36-1.1,2.46-2.46,2.46l0,0l-1.61,0c-0.45,0-0.84,0.35-0.86,0.8c-0.01,0.47,0.36,0.85,0.82,0.85
	c1.39,0,2.51,1.15,2.46,2.55c-0.05,1.34-1.19,2.37-2.52,2.37h-2.37c-0.45,0-0.84,0.35-0.86,0.8c-0.01,0.47,0.36,0.85,0.82,0.85
	c1.39,0,2.51,1.15,2.46,2.55C92.34,71.96,91.2,73,89.86,73h-6.51c-5.84,0-12.51-2.1-15.97-3.36c-1.37-0.5-2.81-0.75-4.27-0.75h-1.12
	V48.36h0.6c2.06,0.01,4.05-0.8,5.5-2.26c2.46-2.46,5.39-6.21,5.39-10.06V29.76z M50.49,47.53c0-0.45,0.37-0.82,0.82-0.82h8.21
	c0.45,0,0.82,0.37,0.82,0.82v22.18c0,0.45-0.37,0.82-0.82,0.82h-8.21c-0.45,0-0.82-0.37-0.82-0.82V47.53z"/>
</svg>
