<?xml version="1.0" encoding="utf-8"?>
<!-- Generator: $$$/GeneralStr/196=Adobe Illustrator 27.6.0, SVG Export Plug-In . SVG Version: 6.00 Build 0)  -->
<svg version="1.1" xmlns="http://www.w3.org/2000/svg" xmlns:xlink="http://www.w3.org/1999/xlink" x="0px" y="0px"
	 viewBox="0 0 305.36 305.36" style="enable-background:new 0 0 305.36 305.36;" xml:space="preserve">
<style type="text/css">
	.st0{fill:#AD1034;}
	.st1{fill:#FFFFFF;}
	.st2{fill:#AC0634;}
</style>
<g id="Ebene_1">
	<circle class="st0" cx="152.68" cy="152.68" r="152.68"/>
	<path class="st1" d="M195.4,86.69c3.73,0,6.98,0,10.22,0c7,0,14-0.04,20.99,0.01c12.3,0.1,19.21,7.01,19.27,19.23
		c0.03,7.13,0.01,14.25,0.01,21.22c15.11,4.01,20.52,10.42,20.2,23.46c-0.28,11.41-6.56,18.12-20.22,20.98
		c0,6.78,0.03,13.73-0.01,20.67c-0.07,12.59-6.93,19.48-19.51,19.49c-32.16,0.04-64.31,0.08-96.47-0.06
		c-3.61-0.02-5.57,1.05-7.48,4.17c-9.44,15.4-24.21,23.89-40.49,30.18c-1.26,0.49-3.84,0.17-4.36-0.66
		c-0.77-1.24-0.64-3.4-0.18-4.96c2.72-9.2,5.64-18.34,8.68-28.09c-3.99-0.54-6.32-0.66-8.55-1.19c-7.75-1.85-12.87-8.4-13.16-16.77
		c-0.13-3.83-0.05-7.66-0.06-11.5c-0.01-3.65,0-7.3,0-11.43c-7.06-0.74-13.56-3.2-16.67-9.5c-2.24-4.55-3.32-10.12-3.32-15.24
		c0-10.04,6.72-16.23,19.99-19.5c0-6.79-0.01-13.74,0-20.7c0.03-12.93,6.8-19.76,19.68-19.82c8.5-0.04,16.99-0.01,25.49,0
		c1.6,0,3.19,0,5.47,0 M125.8,86.75c19.49-0.12,38.99-0.11,58.48,0 M87.24,236.34c13-6.33,24.18-13.95,30.71-26.71
		c1.89-3.7,4.11-4.9,8.13-4.89c33.16,0.14,66.33,0.09,99.49,0.07c9.71,0,13.33-3.55,13.34-13.21c0.04-28.33,0.04-56.66,0.03-84.99
		c0-9.32-3.66-12.93-13.1-12.94c-47.16-0.01-94.32-0.01-141.49,0c-9.46,0-13.1,3.6-13.11,12.92c-0.01,27.83-0.02,55.66,0.02,83.49
		c0.01,11.75,2.91,14.59,14.84,14.73c5.92,0.07,6.9,0.91,5.95,6.78C90.75,219.61,88.98,227.53,87.24,236.34z M64.02,135.2
		c-8.77,0.17-13.53,6.14-12.98,15.92c0.44,7.83,5.85,13,12.98,12.28C64.02,154.01,64.02,144.6,64.02,135.2z M246.16,163.77
		c8.73-0.42,13.17-5.75,13-15.13c-0.14-8.11-5.02-13.26-13-13.45C246.16,144.6,246.16,154,246.16,163.77z"/>
	<path class="st1" d="M87.24,236.34c1.74-8.81,3.52-16.74,4.81-24.74c0.95-5.87-0.04-6.71-5.95-6.78
		c-11.92-0.14-14.82-2.97-14.84-14.73c-0.03-27.83-0.03-55.66-0.02-83.49c0-9.32,3.65-12.92,13.11-12.92
		c47.16-0.01,94.32-0.01,141.49,0c9.43,0,13.09,3.62,13.1,12.94c0.01,28.33,0.01,56.66-0.03,84.99
		c-0.01,9.66-3.63,13.21-13.34,13.21c-33.16,0.01-66.33,0.07-99.49-0.07c-4.02-0.02-6.24,1.19-8.13,4.89
		C111.42,222.39,100.24,230.02,87.24,236.34z M206.79,135.6c0.13-7.85-6.3-14.38-14.18-14.38c-7.64,0-13.97,6.26-14.09,13.95
		c-0.13,7.68,5.98,14.1,13.67,14.37C200.03,149.81,206.65,143.49,206.79,135.6z M131.69,135.58c0.12-7.64-6.06-14.11-13.7-14.36
		c-7.86-0.25-14.47,6.07-14.59,13.96c-0.13,7.87,6.32,14.4,14.19,14.37C125.24,149.53,131.57,143.25,131.69,135.58z M153.63,184.73
		c11.41-0.01,21.9-4.28,27.69-11.26c1.11-1.34,0.71-3.95,1.01-5.97c-1.88,0.34-4.3,0.06-5.55,1.13
		c-14.4,12.35-28.93,12.34-43.4-0.02c-1.25-1.07-3.68-0.76-5.55-1.09c0.31,2.02-0.1,4.71,1.05,5.96
		C135.88,181.05,144.82,184.56,153.63,184.73z"/>
	<path class="st2" d="M64.02,135.2c0,9.4,0,18.81,0,28.2c-7.12,0.73-12.53-4.45-12.98-12.28C50.49,141.34,55.25,135.37,64.02,135.2z
		"/>
	<path class="st2" d="M246.16,163.77c0-9.77,0-19.18,0-28.58c7.98,0.19,12.86,5.34,13,13.45
		C259.33,158.02,254.89,163.35,246.16,163.77z"/>
	<path class="st2" d="M206.79,135.6c-0.13,7.9-6.75,14.21-14.61,13.94c-7.69-0.27-13.8-6.69-13.67-14.37
		c0.13-7.68,6.45-13.95,14.09-13.95C200.48,121.22,206.92,127.74,206.79,135.6z M192.45,142.55c3.9,0.11,7.37-3.21,7.4-7.1
		c0.03-3.68-3.08-7.01-6.78-7.25c-3.86-0.24-7.46,2.98-7.65,6.86C185.23,138.94,188.51,142.43,192.45,142.55z"/>
	<path class="st2" d="M153.63,184.73c-8.81-0.16-17.75-3.68-24.75-11.25c-1.15-1.25-0.74-3.94-1.05-5.96
		c1.88,0.33,4.31,0.02,5.55,1.09c14.46,12.36,28.99,12.37,43.4,0.02c1.25-1.07,3.67-0.79,5.55-1.13c-0.3,2.02,0.11,4.63-1.01,5.97
		C175.52,180.44,165.04,184.72,153.63,184.73z"/>
	<path class="st1" d="M192.45,142.55c-3.94-0.11-7.22-3.61-7.03-7.48c0.19-3.88,3.79-7.11,7.65-6.86c3.69,0.23,6.81,3.56,6.78,7.25
		C199.82,139.34,196.35,142.66,192.45,142.55z"/>
	<path class="st1" d="M117.59,128.18c3.87,0.04,7.29,3.55,7.19,7.37c-0.11,3.9-3.6,7.14-7.53,6.99c-3.72-0.15-6.88-3.38-6.93-7.08
		C110.27,131.6,113.73,128.14,117.59,128.18z"/>
</g>
<g id="Ebene_2">
</g>
</svg>
